{"title":"Picture.Perfect.1997.720p.WEB-DL.DD5.1.H264-FGT","uid":11940739,"size":3448548813,"categoryP":"video","categoryS":"hd___movies","magnet":"?xt=urn:btih:59de0e5d1e1bbd9a9fbc0e6be3affe057932b5a2&amp;dn=Picture.Perfect.1997.720p.WEB-DL.DD5.1.H264-FGT&amp;tr=udp%3A%2F%2Ftracker.openbittorrent.com%3A80&amp;tr=udp%3A%2F%2Fopen.demonii.com%3A1337&amp;tr=udp%3A%2F%2Ftracker.coppersurfer.tk%3A6969&amp;tr=udp%3A%2F%2Fexodus.desync.com%3A6969","seeders":0,"leechers":1,"uploader":"vickey1992","files":2,"time":1431959753,"description":"Video\nID                                       : 1\nFormat                                   : AVC\nFormat/Info                              : Advanced Video Codec\nFormat profile                           : &lt;a class=&quot;__cf_email__&quot; href=&quot;/cdn-cgi/l/email-protection&quot; data-cfemail=&quot;044c6d636c4448372a35&quot;&gt;[email&amp;#160;protected]&lt;/a&gt;&lt;script data-cfhash='f9e31' type=&quot;text/javascript&quot;&gt;\n/* &lt;![CDATA[ */!function(){try{var t=&quot;currentScript&quot;in document?document.currentScript:function(){for(var t=document.getElementsByTagName(&quot;script&quot;),e=t.length;e--;)if(t[e].getAttribute(&quot;data-cfhash&quot;))return t[e]}();if(t&amp;&amp;t.previousSibling){var e,r,n,i,c=t.previousSibling,a=c.getAttribute(&quot;data-cfemail&quot;);if(a){for(e=&quot;&quot;,r=parseInt(a.substr(0,2),16),n=2;a.length-n;n+=2)i=parseInt(a.substr(n,2),16)^r,e+=String.fromCharCode(i);e=document.createTextNode(e),c.parentNode.replaceChild(e,c)}t.parentNode.removeChild(t);}}catch(u){}}()/* ]]&gt; */&lt;/script&gt;\nFormat settings, CABAC                   : No\nFormat settings, ReFrames                : 2 frames\nFormat settings, GOP                     : N=1\nCodec ID                                 : V_MPEG4/ISO/AVC\nDuration                                 : 1h 41mn\nBit rate                                 : 4 043 Kbps\nWidth                                    : 1 280 pixels\nHeight                                   : 720 pixels\nDisplay aspect ratio                     : 16:9\nFrame rate mode                          : Constant\nFrame rate                               : 23.976 fps\nColor space                              : YUV\nChroma subsampling                       : 4:2:0\nBit depth                                : 8 bits\nScan type                                : Progressive\nBits/(Pixel*Frame)                       : 0.183\nStream size                              : 2.87 GiB (90%)\nTitle                                    : Picture.Perfect.1997.720p.WEB-DL.DD5.1.H264-FGT\nLanguage                                 : English\nDefault                                  : Yes\nForced                                   : No\nColor primaries                          : BT.709\nTransfer characteristics                 : BT.709\nMatrix coefficients                      : BT.709\nColor range                              : Limited\n\nAudio\nID                                       : 2\nFormat                                   : AC-3\nFormat/Info                              : Audio Coding 3\nMode extension                           : CM (complete main)\nFormat settings, Endianness              : Big\nCodec ID                                 : A_AC3\nDuration                                 : 1h 41mn\nBit rate mode                            : Constant\nBit rate                                 : 384 Kbps\nChannel(s)                               : 6 channels\nChannel positions                        : Front: L C R, Side: L R, LFE\nSampling rate                            : 48.0 KHz\nBit depth                                : 16 bits\nCompression mode                         : Lossy\nStream size                              : 280 MiB (9%)\nTitle                                    : Picture.Perfect.1997.720p.WEB-DL.DD5.1.H264-FGT\nLanguage                                 : English\nDefault                                  : Yes\nForced                                   : No\n\nText\nID                                       : 3\nFormat                                   : UTF-8\nCodec ID                                 : S_TEXT/UTF8\nCodec ID/Info                            : UTF-8 Plain Text\nLanguage                                 : English\nDefault                                  : Yes\nForced                                   : No\n\nMenu\n00:00:00.000                             : en:Main Titles\n00:03:30.000                             : en:The Mustard Meeting\n00:08:45.000                             : en:The Wedding\n00:16:02.000                             : en:A Little Lie\n00:21:26.000                             : en:The Party\n00:27:44.000                             : en:A New Life\n00:32:57.000                             : en:The Affair\n00:39:10.000                             : en:Nick Becomes Famous\n00:45:26.000                             : en:Keeping the Lie Going\n00:51:55.000                             : enrinks with Sam\n00:54:06.000                             : en:Getting to Know Each Other\n00:57:48.000                             : en:The Dinner\n01:02:07.000                             : enancing\n01:06:52.000                             : en:The Fight\n01:10:48.000                             : en:Life is Perfect?\n01:13:55.000                             : en:Taking Care\n01:19:03.000                             : en:A New Day\n01:23:00.000                             : en:Working Late\n01:26:00.000                             : en:Facing the Truth\n01:30:23.000                             : en:Cleaning Up\n01:32:38.000                             : en:Holding Peace\n01:38:13.000                             : en:End Titles","torrent":{"xt":"urn:btih:59de0e5d1e1bbd9a9fbc0e6be3affe057932b5a2","amp;dn":"Picture.Perfect.1997.720p.WEB-DL.DD5.1.H264-FGT","amp;tr":["udp%3A%2F%2Ftracker.openbittorrent.com%3A80","udp%3A%2F%2Fopen.demonii.com%3A1337","udp%3A%2F%2Ftracker.coppersurfer.tk%3A6969","udp%3A%2F%2Fexodus.desync.com%3A6969"],"infoHash":"59de0e5d1e1bbd9a9fbc0e6be3affe057932b5a2","infoHashBuffer":{"type":"Buffer","data":[89,222,14,93,30,27,189,154,159,188,14,107,227,175,254,5,121,50,181,162]},"announce":[],"urlList":[]}}